<?xml version="1.0" encoding="UTF-8" standalone="no"?>
<!-- Created with Inkscape (http://www.inkscape.org/) -->

<svg
   xmlns:dc="http://purl.org/dc/elements/1.1/"
   xmlns:cc="http://creativecommons.org/ns#"
   xmlns:rdf="http://www.w3.org/1999/02/22-rdf-syntax-ns#"
   xmlns:svg="http://www.w3.org/2000/svg"
   xmlns="http://www.w3.org/2000/svg"
   xmlns:sodipodi="http://sodipodi.sourceforge.net/DTD/sodipodi-0.dtd"
   xmlns:inkscape="http://www.inkscape.org/namespaces/inkscape"
   width="744.09448819"
   height="1052.3622047"
   id="svg2"
   version="1.1"
   inkscape:version="0.48.4 r9939"
   sodipodi:docname="New document 1">
  <defs
     id="defs4">
    <inkscape:perspective
       sodipodi:type="inkscape:persp3d"
       inkscape:vp_x="-13974.286 : 871.89538 : 1"
       inkscape:vp_y="0 : 1000 : 0"
       inkscape:vp_z="-13230.191 : 871.89538 : 1"
       inkscape:persp3d-origin="-13602.238 : 696.50168 : 1"
       id="perspective3231" />
    <inkscape:perspective
       sodipodi:type="inkscape:persp3d"
       inkscape:vp_x="0 : 526.18109 : 1"
       inkscape:vp_y="0 : 1000 : 0"
       inkscape:vp_z="744.09448 : 526.18109 : 1"
       inkscape:persp3d-origin="372.04724 : 350.78739 : 1"
       id="perspective2991" />
  </defs>
  <sodipodi:namedview
     id="base"
     pagecolor="#ffffff"
     bordercolor="#666666"
     borderopacity="1.0"
     inkscape:pageopacity="0.0"
     inkscape:pageshadow="2"
     inkscape:zoom="0.45254834"
     inkscape:cx="96.573641"
     inkscape:cy="606.23224"
     inkscape:document-units="px"
     inkscape:current-layer="layer1"
     showgrid="false"
     inkscape:window-width="1366"
     inkscape:window-height="713"
     inkscape:window-x="-3"
     inkscape:window-y="-3"
     inkscape:window-maximized="1" />
  <metadata
     id="metadata7">
    <rdf:RDF>
      <cc:Work
         rdf:about="">
        <dc:format>image/svg+xml</dc:format>
        <dc:type
           rdf:resource="http://purl.org/dc/dcmitype/StillImage" />
        <dc:title></dc:title>
      </cc:Work>
    </rdf:RDF>
  </metadata>
  <g
     inkscape:label="Layer 1"
     inkscape:groupmode="layer"
     id="layer1">
    <path
       sodipodi:type="arc"
       style="fill:#00ff60;fill-opacity:1;stroke:#cb3535;stroke-width:0.02433457;stroke-linecap:round;stroke-linejoin:round;stroke-miterlimit:4;stroke-opacity:1;stroke-dasharray:none"
       id="path3509"
       sodipodi:cx="-7144.9531"
       sodipodi:cy="18085.98"
       sodipodi:rx="0.4140625"
       sodipodi:ry="0.30273438"
       d="m -7144.5391,18085.98 a 0.4140625,0.30273438 0 1 1 -0.8281,0 0.4140625,0.30273438 0 1 1 0.8281,0 z"
       transform="matrix(289.23748,0,0,380.06526,2066947.2,-6873620)" />
    <path
       sodipodi:type="star"
       style="fill:#00ff60;fill-opacity:1;stroke:#0000ff;stroke-width:0.1;stroke-linecap:round;stroke-linejoin:round;stroke-miterlimit:4;stroke-opacity:1;stroke-dasharray:none"
       id="path4293"
       sodipodi:sides="5"
       sodipodi:cx="-7144.8594"
       sodipodi:cy="18084.918"
       sodipodi:r1="0.22710066"
       sodipodi:r2="0.11355033"
       sodipodi:arg1="1.1071487"
       sodipodi:arg2="1.7354672"
       inkscape:flatsided="false"
       inkscape:rounded="0"
       inkscape:randomized="0"
       d="m -7144.7578,18085.121 -0.1202,-0.09 -0.1432,0.05 0.05,-0.142 -0.089,-0.122 0.1507,0 0.088,-0.122 0.044,0.144 0.1437,0.05 -0.1238,0.09 z"
       inkscape:transform-center-x="-0.89217788"
       inkscape:transform-center-y="-0.80570566"
       transform="matrix(80.682608,0,0,80.682608,576810.59,-1458978)" />
    <path
       sodipodi:type="star"
       style="fill:#24221c;fill-opacity:1;stroke:#cb3535;stroke-width:0.1;stroke-linecap:round;stroke-linejoin:round;stroke-miterlimit:4;stroke-opacity:1;stroke-dasharray:none"
       id="path4295"
       sodipodi:sides="5"
       sodipodi:cx="-7145.4297"
       sodipodi:cy="18085.637"
       sodipodi:r1="0.3140586"
       sodipodi:r2="0.15702932"
       sodipodi:arg1="0.099668652"
       sodipodi:arg2="0.72798718"
       inkscape:flatsided="false"
       inkscape:rounded="0"
       inkscape:randomized="0"
       d="m -7145.1172,18085.668 -0.1953,0.07 -0.05,0.203 -0.13,-0.164 -0.2081,0.01 0.115,-0.174 -0.078,-0.193 0.201,0.06 0.1597,-0.134 0.01,0.209 z"
       inkscape:transform-center-x="-1.6306504"
       inkscape:transform-center-y="0.81670653"
       transform="matrix(80.682608,0,0,80.682608,576810.59,-1458978)" />
    <path
       sodipodi:type="star"
       style="fill:#0000ff;fill-opacity:1;stroke:#cb3535;stroke-width:0.1;stroke-linecap:round;stroke-linejoin:round;stroke-miterlimit:4;stroke-opacity:1;stroke-dasharray:none"
       id="path4297"
       sodipodi:sides="5"
       sodipodi:cx="-7144.5078"
       sodipodi:cy="18085.447"
       sodipodi:r1="0.60942507"
       sodipodi:r2="0.30471256"
       sodipodi:arg1="-0.01281981"
       sodipodi:arg2="0.61549872"
       inkscape:flatsided="false"
       inkscape:rounded="0"
       inkscape:randomized="0"
       d="m -7143.8984,18085.439 -0.3606,0.184 -0.053,0.401 -0.2862,-0.286 -0.3979,0.07 0.1837,-0.361 -0.1929,-0.356 0.3997,0.06 0.2788,-0.294 0.063,0.4 z"
       inkscape:transform-center-x="-4.473679"
       inkscape:transform-center-y="-0.15721208"
       transform="matrix(80.682608,0,0,80.682608,576810.59,-1458978)" />
    <path
       sodipodi:type="star"
       style="fill:#0000ff;fill-opacity:1;stroke:#cb3535;stroke-width:0.1;stroke-linecap:round;stroke-linejoin:round;stroke-miterlimit:4;stroke-opacity:1;stroke-dasharray:none"
       id="path4299"
       sodipodi:sides="5"
       sodipodi:cx="-7145.0469"
       sodipodi:cy="18086.447"
       sodipodi:r1="0.50097561"
       sodipodi:r2="0.2504878"
       sodipodi:arg1="0.06241881"
       sodipodi:arg2="0.69073734"
       inkscape:flatsided="false"
       inkscape:rounded="0"
       inkscape:randomized="0"
       d="m -7144.5469,18086.479 -0.3069,0.128 -0.068,0.325 -0.2169,-0.252 -0.3308,0.04 0.1729,-0.284 -0.1361,-0.304 0.3237,0.08 0.2467,-0.224 0.027,0.332 z"
       inkscape:transform-center-x="-3.0752462"
       inkscape:transform-center-y="0.8167097"
       transform="matrix(80.682608,0,0,80.682608,576810.59,-1458978)" />
    <path
       sodipodi:type="star"
       style="fill:#00ff60;fill-opacity:1;stroke:#cb3535;stroke-width:0.1;stroke-linecap:round;stroke-linejoin:round;stroke-miterlimit:4;stroke-opacity:1;stroke-dasharray:none"
       id="path4301"
       sodipodi:sides="5"
       sodipodi:cx="-7143.9375"
       sodipodi:cy="18086.182"
       sodipodi:r1="0.24407031"
       sodipodi:r2="0.12203515"
       sodipodi:arg1="-0.87605805"
       sodipodi:arg2="-0.24773952"
       inkscape:flatsided="false"
       inkscape:rounded="0"
       inkscape:randomized="0"
       d="m -7143.7812,18085.994 -0.038,0.158 0.1083,0.12 -0.1616,0.01 -0.081,0.14 -0.062,-0.15 -0.1585,-0.03 0.1233,-0.105 -0.017,-0.161 0.1381,0.09 z"
       inkscape:transform-center-x="0.43988288"
       inkscape:transform-center-y="1.5297534"
       transform="matrix(80.682608,0,0,80.682608,576810.59,-1458978)" />
    <path
       sodipodi:type="star"
       style="fill:#ff0000;fill-opacity:1;stroke:#00ffff;stroke-width:0.1;stroke-linecap:round;stroke-linejoin:round;stroke-miterlimit:4;stroke-opacity:1;stroke-dasharray:none"
       id="path4303"
       sodipodi:sides="5"
       sodipodi:cx="-7143.7344"
       sodipodi:cy="18085.65"
       sodipodi:r1="0.42504594"
       sodipodi:r2="0.21252298"
       sodipodi:arg1="-0.29849893"
       sodipodi:arg2="0.3298196"
       inkscape:flatsided="false"
       inkscape:rounded="0"
       inkscape:randomized="0"
       d="m -7143.3281,18085.525 -0.2052,0.194 0.043,0.279 -0.2477,-0.135 -0.2519,0.127 0.052,-0.277 -0.199,-0.2 0.2799,-0.04 0.1289,-0.252 0.1209,0.255 z"
       inkscape:transform-center-x="-0.12995205"
       inkscape:transform-center-y="-3.0789649"
       transform="matrix(80.682608,0,0,80.682608,576810.59,-1458978)" />
    <path
       sodipodi:type="star"
       style="fill:#00ffff;fill-opacity:1;stroke:#cb3535;stroke-width:0.1;stroke-linecap:round;stroke-linejoin:round;stroke-miterlimit:4;stroke-opacity:1;stroke-dasharray:none"
       id="path4305"
       sodipodi:sides="5"
       sodipodi:cx="-7145.4531"
       sodipodi:cy="18084.869"
       sodipodi:r1="0.3885099"
       sodipodi:r2="0.19425495"
       sodipodi:arg1="0.26448838"
       sodipodi:arg2="0.89280691"
       inkscape:flatsided="false"
       inkscape:rounded="0"
       inkscape:randomized="0"
       d="m -7145.0781,18084.971 -0.2532,0.05 -0.1025,0.237 -0.1256,-0.225 -0.2568,-0.02 0.1756,-0.189 -0.056,-0.251 0.234,0.108 0.2221,-0.131 -0.031,0.256 z"
       inkscape:transform-center-x="-0.44493011"
       inkscape:transform-center-y="2.5697556"
       transform="matrix(80.682608,0,0,80.682608,576810.59,-1458978)" />
    <path
       sodipodi:type="star"
       style="fill:#0000ff;fill-opacity:1;stroke:#ff0000;stroke-width:0.1;stroke-linecap:round;stroke-linejoin:round;stroke-miterlimit:4;stroke-opacity:1;stroke-dasharray:none"
       id="path4307"
       sodipodi:sides="5"
       sodipodi:cx="-7144.1719"
       sodipodi:cy="18086.494"
       sodipodi:r1="0.33310947"
       sodipodi:r2="0.16655473"
       sodipodi:arg1="2.2565258"
       sodipodi:arg2="2.8848444"
       inkscape:flatsided="false"
       inkscape:rounded="0"
       inkscape:randomized="0"
       d="m -7144.3828,18086.752 0.05,-0.216 -0.1493,-0.163 0.2204,-0.02 0.1091,-0.192 0.086,0.203 0.2167,0.04 -0.167,0.145 0.025,0.219 -0.1895,-0.114 z"
       inkscape:transform-center-x="-0.44054561"
       inkscape:transform-center-y="-2.0714159"
       transform="matrix(80.682608,0,0,80.682608,576810.59,-1458978)" />
    <path
       sodipodi:type="star"
       style="fill:#00ff60;fill-opacity:1;stroke:#00ffff;stroke-width:0.1;stroke-linecap:round;stroke-linejoin:round;stroke-miterlimit:4;stroke-opacity:1;stroke-dasharray:none"
       id="path4309"
       sodipodi:sides="5"
       sodipodi:cx="-7145.8203"
       sodipodi:cy="18086.072"
       sodipodi:r1="0.34807295"
       sodipodi:r2="0.17403647"
       sodipodi:arg1="1.7285651"
       sodipodi:arg2="2.3568836"
       inkscape:flatsided="false"
       inkscape:rounded="0"
       inkscape:randomized="0"
       d="m -7145.875,18086.416 -0.069,-0.221 -0.2206,-0.07 0.1888,-0.133 -0,-0.231 0.1851,0.138 0.219,-0.07 -0.074,0.219 0.1381,0.186 -0.2311,-0 z"
       inkscape:transform-center-x="1.3994927"
       inkscape:transform-center-y="1.3892457"
       transform="matrix(80.682608,0,0,80.682608,576810.59,-1458978)" />
    <path
       sodipodi:type="star"
       style="fill:#00ff60;fill-opacity:1;stroke:#ff0000;stroke-width:0.1;stroke-linecap:round;stroke-linejoin:round;stroke-miterlimit:4;stroke-opacity:1;stroke-dasharray:none"
       id="path4311"
       sodipodi:sides="5"
       sodipodi:cx="-7145.8359"
       sodipodi:cy="18085.369"
       sodipodi:r1="0.40217304"
       sodipodi:r2="0.20108654"
       sodipodi:arg1="1.7071989"
       sodipodi:arg2="2.3355175"
       inkscape:flatsided="false"
       inkscape:rounded="0"
       inkscape:randomized="0"
       d="m -7145.8906,18085.768 -0.085,-0.254 -0.2566,-0.07 0.2148,-0.158 -0.01,-0.267 0.2173,0.155 0.2511,-0.09 -0.081,0.255 0.1641,0.21 -0.2671,0 z"
       inkscape:transform-center-x="1.3994928"
       inkscape:transform-center-y="1.810583"
       transform="matrix(80.682608,0,0,80.682608,576810.59,-1458978)" />
    <path
       sodipodi:type="star"
       style="fill:#00ff60;fill-opacity:1;stroke:#ffff00;stroke-width:0.1;stroke-linecap:round;stroke-linejoin:round;stroke-miterlimit:4;stroke-opacity:1;stroke-dasharray:none"
       id="path4313"
       sodipodi:sides="5"
       sodipodi:cx="-7144.6406"
       sodipodi:cy="18084.668"
       sodipodi:r1="0.21323974"
       sodipodi:r2="0.10661988"
       sodipodi:arg1="1.423718"
       sodipodi:arg2="2.0520365"
       inkscape:flatsided="false"
       inkscape:rounded="0"
       inkscape:randomized="0"
       d="m -7144.6094,18084.879 -0.081,-0.117 -0.1416,0 0.086,-0.113 -0.044,-0.134 0.1336,0.05 0.1144,-0.08 -0,0.142 0.1147,0.08 -0.1356,0.04 z"
       inkscape:transform-center-x="-0.74313121"
       inkscape:transform-center-y="0.9217364"
       transform="matrix(80.682608,0,0,80.682608,576810.59,-1458978)" />
    <path
       sodipodi:type="star"
       style="fill:#00ff60;fill-opacity:1;stroke:#ffff00;stroke-width:0.1;stroke-linecap:round;stroke-linejoin:round;stroke-miterlimit:4;stroke-opacity:1;stroke-dasharray:none"
       id="path4315"
       sodipodi:sides="5"
       sodipodi:cx="-7144.0938"
       sodipodi:cy="18084.668"
       sodipodi:r1="0.22385232"
       sodipodi:r2="0.11192617"
       sodipodi:arg1="0.51048832"
       sodipodi:arg2="1.1388069"
       inkscape:flatsided="false"
       inkscape:rounded="0"
       inkscape:randomized="0"
       d="m -7143.8984,18084.777 -0.1485,-0 -0.09,0.118 -0.039,-0.144 -0.1402,-0.05 0.1247,-0.08 0,-0.148 0.1156,0.09 0.1425,-0.04 -0.053,0.139 z"
       inkscape:transform-center-x="1.1247177"
       inkscape:transform-center-y="0.69367612"
       transform="matrix(80.682608,0,0,80.682608,576810.59,-1458978)" />
    <path
       sodipodi:type="star"
       style="fill:#00ff00;fill-opacity:1;stroke:#0000ff;stroke-width:0.1;stroke-linecap:round;stroke-linejoin:round;stroke-miterlimit:4;stroke-opacity:1;stroke-dasharray:none"
       id="path4317"
       sodipodi:sides="5"
       sodipodi:cx="-7144.2422"
       sodipodi:cy="18086.854"
       sodipodi:r1="0.25626904"
       sodipodi:r2="0.12813453"
       sodipodi:arg1="-2.226492"
       sodipodi:arg2="-1.5981734"
       inkscape:flatsided="false"
       inkscape:rounded="0"
       inkscape:randomized="0"
       d="m -7144.3984,18086.65 0.1527,0.07 0.1484,-0.08 -0.024,0.169 0.1251,0.115 -0.1677,0.03 -0.071,0.155 -0.079,-0.151 -0.1691,-0.02 0.1186,-0.122 z"
       inkscape:transform-center-x="-0.13889916"
       inkscape:transform-center-y="1.8449225"
       transform="matrix(80.682608,0,0,80.682608,576810.59,-1458978)" />
  </g>
</svg>
